{"title":"The.Book.Thief.2013.BRRip.720p.x264.AAC-PRiSTiNE [P2PDL]","uid":9680828,"size":818008196,"categoryP":"video","categoryS":"hd___movies","magnet":"?xt=urn:btih:3a8f46165af4ca60f4e0713a06d94d3d4d139697&amp;dn=The.Book.Thief.2013.BRRip.720p.x264.AAC-PRiSTiNE+%5BP2PDL%5D&amp;tr=udp%3A%2F%2Ftracker.openbittorrent.com%3A80&amp;tr=udp%3A%2F%2Fopen.demonii.com%3A1337&amp;tr=udp%3A%2F%2Ftracker.coppersurfer.tk%3A6969&amp;tr=udp%3A%2F%2Fexodus.desync.com%3A6969","seeders":2,"leechers":1,"uploader":"ValidusVyto","files":-1,"time":1393666571,"description":"The.Book.Thief.2013.BRRip.720p.x264.AAC-PRiSTiNE\n\n\nGenre: Drama | War &lt;a href=&quot;\nhttp://www.imdb.com/title/tt0816442/&quot; rel=&quot;nofollow&quot; target=&quot;_NEW&quot;&gt;\nhttp://www.imdb.com/title/tt0816442/&lt;/a&gt;\n\n\nFormat                                   : MPEG-4\nFile size                                : 773 MiB\nDuration                                 : 2h 10mn\nOverall bit rate mode                    : Variable\nOverall bit rate                         : 825 Kbps\n\nVideo\nFormat                                   : AVC\nFormat profile                           : &lt;a class=&quot;__cf_email__&quot; href=&quot;/cdn-cgi/l/email-protection&quot; data-cfemail=&quot;7d35141a153d3149534c&quot;&gt;[email&amp;#160;protected]&lt;/a&gt;&lt;script cf-hash='f9e31' type=&quot;text/javascript&quot;&gt;\n/* &lt;![CDATA[ */!function(){try{var t=&quot;currentScript&quot;in document?document.currentScript:function(){for(var t=document.getElementsByTagName(&quot;script&quot;),e=t.length;e--;)if(t[e].getAttribute(&quot;cf-hash&quot;))return t[e]}();if(t&amp;&amp;t.previousSibling){var e,r,n,i,c=t.previousSibling,a=c.getAttribute(&quot;data-cfemail&quot;);if(a){for(e=&quot;&quot;,r=parseInt(a.substr(0,2),16),n=2;a.length-n;n+=2)i=parseInt(a.substr(n,2),16)^r,e+=String.fromCharCode(i);e=document.createTextNode(e),c.parentNode.replaceChild(e,c)}}}catch(u){}}();/* ]]&gt; */&lt;/script&gt;\nBit rate                                 : 740 Kbps\nWidth                                    : 1 280 pixels\nHeight                                   : 528 pixels\nDisplay aspect ratio                     : 2.40:1\nFrame rate mode                          : Variable\nFrame rate                               : 23.976 fps\nBit depth                                : 8 bits\nStream size                              : 693 MiB (90%)\nWriting library                          : x264 core 142 r2389 956c8d8\n\nAudio\nFormat                                   : AAC\nBit rate mode                            : Variable\nBit rate                                 : 80.0 Kbps\nChannel(s)                               : 2 channels\nChannel positions                        : Front: L R\nSampling rate                            : 48.0 KHz\nStream size                              : 75.0 MiB (10%)\nLanguage                                 : English\n\nSubtitle                                 : Yes (English)\n &lt;a href=&quot;\nhttp://someimage.com/90cuS05&quot; rel=&quot;nofollow&quot; target=&quot;_NEW&quot;&gt;\nhttp://someimage.com/90cuS05&lt;/a&gt; &lt;a href=&quot;\nhttp://someimage.com/PwZLrpa&quot; rel=&quot;nofollow&quot; target=&quot;_NEW&quot;&gt;\nhttp://someimage.com/PwZLrpa&lt;/a&gt; &lt;a href=&quot;\nhttp://someimage.com/VTy52rX&quot; rel=&quot;nofollow&quot; target=&quot;_NEW&quot;&gt;\nhttp://someimage.com/VTy52rX&lt;/a&gt; &lt;a href=&quot;\nhttp://someimage.com/AgFVj7g&quot; rel=&quot;nofollow&quot; target=&quot;_NEW&quot;&gt;\nhttp://someimage.com/AgFVj7g&lt;/a&gt; &lt;a href=&quot;\nhttp://someimage.com/O1mpCRC&quot; rel=&quot;nofollow&quot; target=&quot;_NEW&quot;&gt;\nhttp://someimage.com/O1mpCRC&lt;/a&gt; &lt;a href=&quot;\nhttp://someimage.com/oIhFqvS&quot; rel=&quot;nofollow&quot; target=&quot;_NEW&quot;&gt;\nhttp://someimage.com/oIhFqvS&lt;/a&gt; &lt;a href=&quot;\nhttp://someimage.com/x68VhM6&quot; rel=&quot;nofollow&quot; target=&quot;_NEW&quot;&gt;\nhttp://someimage.com/x68VhM6&lt;/a&gt; &lt;a href=&quot;\nhttp://someimage.com/ReAs24v&quot; rel=&quot;nofollow&quot; target=&quot;_NEW&quot;&gt;\nhttp://someimage.com/ReAs24v&lt;/a&gt; &lt;a href=&quot;\nhttp://someimage.com/OOJQBg6&quot; rel=&quot;nofollow&quot; target=&quot;_NEW&quot;&gt;\nhttp://someimage.com/OOJQBg6&lt;/a&gt; &lt;a href=&quot;\nhttp://someimage.com/WXLsl9H&quot; rel=&quot;nofollow&quot; target=&quot;_NEW&quot;&gt;\nhttp://someimage.com/WXLsl9H&lt;/a&gt;\n\nFor more awesome torrent release from us, find us P2PDL torrents community.","torrent":{"xt":"urn:btih:3a8f46165af4ca60f4e0713a06d94d3d4d139697","amp;dn":"The.Book.Thief.2013.BRRip.720p.x264.AAC-PRiSTiNE+%5BP2PDL%5D","amp;tr":["udp%3A%2F%2Ftracker.openbittorrent.com%3A80","udp%3A%2F%2Fopen.demonii.com%3A1337","udp%3A%2F%2Ftracker.coppersurfer.tk%3A6969","udp%3A%2F%2Fexodus.desync.com%3A6969"],"infoHash":"3a8f46165af4ca60f4e0713a06d94d3d4d139697","infoHashBuffer":{"type":"Buffer","data":[58,143,70,22,90,244,202,96,244,224,113,58,6,217,77,61,77,19,150,151]},"announce":[],"urlList":[]}}